<svg xmlns="http://www.w3.org/2000/svg" xmlns:xlink="http://www.w3.org/1999/xlink" width="134" height="48" viewBox="0 0 134 48"><g fill="#F86800" fill-rule="evenodd"><path d="M40.047 27.485h-3.66v10.9c0 .468-.233.702-.699.702H31.7c-.466 0-.699-.234-.699-.702v-27.83c0-.467.233-.701.7-.701h8.512c1.48 0 2.844.192 4.091.578 1.248.385 2.324.95 3.229 1.693a7.645 7.645 0 0 1 2.117 2.787c.508 1.114.761 2.415.761 3.902 0 1.816-.48 3.358-1.44 4.624a9.58 9.58 0 0 1-3.66 2.932l6.786 11.809c.137.22.158.426.062.62-.096.192-.281.288-.555.288h-4.36c-.52 0-.877-.193-1.068-.578l-6.128-11.024zm-.082-4.212c1.398 0 2.556-.344 3.475-1.032.918-.689 1.377-1.803 1.377-3.345 0-1.541-.459-2.656-1.377-3.344-.919-.689-2.077-1.033-3.475-1.033h-3.578v8.754h3.578zm31.682 15.112c0 .468-.233.702-.7.702h-3.66c-.465 0-.698-.234-.698-.702v-1.073c-.63.633-1.412 1.156-2.344 1.569-.932.413-1.947.619-3.043.619a7.58 7.58 0 0 1-2.57-.434 5.622 5.622 0 0 1-2.118-1.341c-.604-.606-1.083-1.39-1.44-2.354-.356-.963-.534-2.106-.534-3.427V21.002c0-.496.219-.785.658-.867l3.577-.537c.521-.083.782.11.782.578v10.612c0 1.486.28 2.574.843 3.262.562.688 1.377 1.032 2.447 1.032a5.23 5.23 0 0 0 1.994-.413 5.243 5.243 0 0 0 1.748-1.156V21.002c0-.496.233-.785.699-.867l3.578-.537c.52-.083.78.11.78.578v18.21zM84.494 39.5a10.3 10.3 0 0 1-3.865-.723 9.753 9.753 0 0 1-3.167-2.023c-.904-.867-1.617-1.913-2.138-3.138-.52-1.225-.781-2.594-.781-4.108 0-1.487.26-2.842.781-4.067a9.357 9.357 0 0 1 2.138-3.138 9.753 9.753 0 0 1 3.167-2.024 10.326 10.326 0 0 1 3.865-.722c1.344 0 2.619.24 3.825.722a9.753 9.753 0 0 1 3.166 2.024c.905.867 1.618 1.913 2.139 3.138.52 1.225.781 2.58.781 4.067 0 1.514-.26 2.883-.781 4.108-.521 1.225-1.234 2.271-2.139 3.138a9.753 9.753 0 0 1-3.166 2.023 10.216 10.216 0 0 1-3.825.723zm0-15.525c-.712 0-1.357.137-1.932.413a4.667 4.667 0 0 0-1.501 1.135 5.11 5.11 0 0 0-.987 1.734c-.233.675-.35 1.425-.35 2.25 0 1.652.446 2.994 1.337 4.027.89 1.032 2.035 1.548 3.433 1.548 1.399 0 2.536-.516 3.414-1.548.877-1.033 1.316-2.375 1.316-4.026 0-1.652-.439-2.987-1.316-4.005-.878-1.019-2.015-1.528-3.414-1.528zm30.696-4.005c.329 0 .52.11.575.33.055.22-.027.44-.246.66l-6.58 6.483 7.114 10.653c.165.248.199.475.103.681-.096.207-.295.31-.596.31h-4.113c-.493 0-.877-.193-1.151-.578l-5.058-7.721-2.879 2.766v4.831c0 .468-.233.702-.699.702h-3.619c-.466 0-.699-.234-.699-.702V9.275c0-.44.192-.715.576-.825l3.084-.785c.165-.055.322-.096.473-.124a2.22 2.22 0 0 1 .39-.041c.33 0 .494.179.494.537V28.02l7.526-7.556c.329-.33.726-.495 1.192-.495h4.113zm14.657 19.117c-.467 0-.7-.234-.7-.702v-.867c-.658.55-1.446 1.019-2.364 1.404-.919.385-1.926.578-3.023.578-.877 0-1.72-.138-2.529-.413a6.76 6.76 0 0 1-2.159-1.197 5.733 5.733 0 0 1-1.5-1.92c-.37-.757-.556-1.618-.556-2.581 0-1.046.206-1.968.617-2.766a5.997 5.997 0 0 1 1.686-2.024c.713-.55 1.549-.97 2.508-1.259a10.65 10.65 0 0 1 3.085-.434c.85 0 1.617.07 2.303.207.685.138 1.33.316 1.932.537v-.578c0-1.322-.301-2.223-.904-2.705-.603-.482-1.59-.722-2.961-.722-1.618 0-3.194.344-4.73 1.032-.465.22-.78.11-.945-.33l-.905-2.52c-.082-.22-.103-.405-.062-.557.042-.151.2-.296.473-.433.33-.165.74-.324 1.234-.475a18.61 18.61 0 0 1 5.387-.805c2.797 0 4.873.592 6.23 1.775 1.357 1.184 2.036 3.207 2.036 6.07v10.983c0 .468-.233.702-.7.702h-3.453zm-4.483-3.344a5.78 5.78 0 0 0 2.056-.372 5.085 5.085 0 0 0 1.727-1.074V30.83a8.114 8.114 0 0 0-1.542-.454 8.647 8.647 0 0 0-1.665-.165c-1.152 0-2.09.234-2.817.702-.727.468-1.09 1.183-1.09 2.147 0 .826.309 1.48.925 1.961.617.482 1.42.723 2.406.723z"></path><path d="M15.783 32.747c-.282 0-.506-.053-.672-.16a1.421 1.421 0 0 1-.442-.477L9.6 24.663v7.407c0 .451-.218.677-.653.677H5.028c-.435 0-.653-.226-.653-.677V17.018c0-.452.218-.677.653-.677h3.918c.435 0 .653.225.653.677v6.73l5.07-6.77c.128-.213.276-.372.442-.478.166-.106.39-.16.672-.16h4.302c.23 0 .404.1.519.3.115.198.07.43-.135.696l-5.454 6.81 5.57 7.605c.204.266.25.498.134.697a.562.562 0 0 1-.519.299h-4.417zM0 36.15c0-.447.225-.67.675-.67h23.807c.45 0 .674.223.674.67V38c0 .447-.225.67-.674.67H.675C.225 38.67 0 38.448 0 38v-1.85zm0-25.157c0-.446.225-.669.675-.669h23.807c.45 0 .674.223.674.67v1.85c0 .446-.225.67-.674.67H.675c-.45 0-.675-.224-.675-.67v-1.85z"></path></g></svg>