<svg width="144" height="144" viewBox="0 0 144 144" fill="none" xmlns="http://www.w3.org/2000/svg">
<path d="M144 0H0V144H144V0Z" fill="#002B44"/>
<path d="M35.916 86.6831C35.916 74.7856 27.4322 67.0232 27.4322 55.5524C27.4322 48.105 29.1391 48.2879 29.5049 48.2879C31.8824 48.2879 34.27 53.8455 34.331 58.8443H35.0015V48.044H34.3919L33.6604 49.3242C32.0145 47.8002 30.1856 47.6173 29.637 47.6173C28.9664 47.6173 23.8965 47.4954 23.8965 55.9791C23.8965 67.0334 32.3193 74.7856 32.3193 87.1708C32.3193 96.1422 29.6979 95.7155 29.4541 95.7155C27.1376 95.7155 24.7601 90.0969 24.689 85.2201H24.0184V96.0203H24.5671L25.3595 94.7401C27.0055 96.3251 28.7124 96.3861 29.3322 96.3861C30.0027 96.3861 35.916 96.6909 35.916 86.6831Z" fill="white"/>
<path d="M52.8627 90.5947C52.8627 96.0304 51.0338 95.7256 50.6681 95.7256C50.2413 95.7256 48.4125 96.0304 48.4125 90.5947V53.4796C48.4125 48.1049 50.2413 48.2878 50.6681 48.2878C51.0338 48.2878 52.8627 48.1049 52.8627 53.4796V90.5947ZM56.3984 90.2188V53.8454C56.3984 49.2022 53.7161 47.6172 50.6579 47.6172C47.6098 47.6172 44.8564 49.2022 44.8564 53.8454V90.2188C44.8564 94.862 47.5997 96.386 50.6579 96.386C53.7161 96.386 56.3984 94.862 56.3984 90.2188Z" fill="white"/>
<path d="M81.8906 95.9841V95.3135C80.0617 95.3135 79.696 94.4601 79.5741 93.4847L77.1356 75.5419C76.6479 71.6302 74.8801 69.9233 71.578 69.6794L77.3185 50.6291C77.6843 49.227 77.9891 48.6784 79.9398 48.6784L80.1837 48.0078H74.5041L74.3212 48.6784C76.272 48.6784 76.211 49.227 75.7843 50.6291L70.1048 69.5575V50.6291C70.1048 49.227 70.1657 48.6784 71.8726 48.6784V48.0078H64.791V48.6784C66.4979 48.6784 66.5589 49.227 66.5589 50.6291V93.3018C66.5589 94.8258 66.4979 95.3135 64.791 95.3135V95.9841H71.8726V95.3135C70.1657 95.3135 70.1048 94.8258 70.1048 93.3018V70.7158C70.6534 70.6548 72.848 70.5939 73.5897 75.7857L76.333 95.9943H81.8906V95.9841Z" fill="white"/>
<path d="M96.3285 90.5767C96.3285 96.0124 94.4996 95.7076 94.1339 95.7076C93.7072 95.7076 91.8783 96.0124 91.8783 90.5767V53.4616C91.8783 48.0869 93.7072 48.2698 94.1339 48.2698C94.4996 48.2698 96.3285 48.0869 96.3285 53.4616V90.5767ZM99.8642 90.2109V53.8376C99.8642 49.1944 97.1819 47.6094 94.1237 47.6094C91.0655 47.6094 88.3223 49.1944 88.3223 53.8376V90.2211C88.3223 94.8643 91.0655 96.3883 94.1237 96.3883C97.1819 96.3883 99.8642 94.8541 99.8642 90.2109Z" fill="white"/>
<path d="M120.935 86.6831C120.935 74.7856 112.452 67.0232 112.452 55.5524C112.452 48.105 114.159 48.2879 114.524 48.2879C116.902 48.2879 119.29 53.8455 119.351 58.8443H120.021V48.044H119.411L118.68 49.3242C117.034 47.8002 115.195 47.6173 114.657 47.6173C113.986 47.6173 108.916 47.4954 108.916 55.9791C108.916 67.0334 117.339 74.7856 117.339 87.1708C117.339 96.1422 114.717 95.7155 114.474 95.7155C112.157 95.7155 109.78 90.0969 109.709 85.2201H109.038V96.0203H109.587L110.379 94.7401C112.025 96.3251 113.732 96.3861 114.352 96.3861C115.012 96.3861 120.935 96.6909 120.935 86.6831Z" fill="white"/>
</svg>
