<?xml version="1.0" encoding="UTF-8" standalone="no"?>
<!-- Created with Inkscape (http://www.inkscape.org/) -->

<svg
   version="1.1"
   id="svg9246"
   width="990.64667"
   height="990.64697"
   viewBox="0 0 990.64667 990.64699"
   xmlns="http://www.w3.org/2000/svg"
   xmlns:svg="http://www.w3.org/2000/svg">
  <defs
     id="defs9250">
    <clipPath
       clipPathUnits="userSpaceOnUse"
       id="clipPath9260">
      <path
         d="M 0,156.117 H 742.985 V 0 H 0 Z"
         id="path9258" />
    </clipPath>
    <clipPath
       clipPathUnits="userSpaceOnUse"
       id="clipPath9268">
      <path
         d="M 6.5697,141.172 H 736.217 V 5.5119 H 6.5697 Z"
         id="path9266" />
    </clipPath>
    <clipPath
       clipPathUnits="userSpaceOnUse"
       id="clipPath9272">
      <path
         d="M 6.5697,141.172 H 736.217 V 5.5119 H 6.5697 Z"
         id="path9270" />
    </clipPath>
    <clipPath
       clipPathUnits="userSpaceOnUse"
       id="clipPath9296">
      <path
         d="M 0,156.117 H 742.985 V 0 H 0 Z"
         id="path9294" />
    </clipPath>
    <clipPath
       clipPathUnits="userSpaceOnUse"
       id="clipPath9304">
      <path
         d="M 7.41878,141.171 H 736.23 V 5.51204 H 7.41878 Z"
         id="path9302" />
    </clipPath>
    <clipPath
       clipPathUnits="userSpaceOnUse"
       id="clipPath9320">
      <path
         d="M 7.30719,141.199 H 736.217 V 7.48978 H 7.30719 Z"
         id="path9318" />
    </clipPath>
    <clipPath
       clipPathUnits="userSpaceOnUse"
       id="clipPath9336">
      <path
         d="M 11.2764,141.106 H 736.11 V 15.8278 H 11.2764 Z"
         id="path9334" />
    </clipPath>
    <clipPath
       clipPathUnits="userSpaceOnUse"
       id="clipPath9352">
      <path
         d="M 60.6776,141.161 H 724.359 V 26.062 H 60.6776 Z"
         id="path9350" />
    </clipPath>
    <clipPath
       clipPathUnits="userSpaceOnUse"
       id="clipPath9368">
      <path
         d="M 0,156.117 H 742.985 V 0 H 0 Z"
         id="path9366" />
    </clipPath>
  </defs>
  <ellipse
     style="fill:#f5df00;stroke:#f5df00;fill-opacity:1;stroke-opacity:1"
     id="path3407"
     cx="498.42249"
     cy="495.56619"
     rx="495.56619"
     ry="492.7099" />
  <g
     id="g9362"
     transform="matrix(1.835274,0,0,-1.835274,-186.46701,635.14257)"
     style="opacity:1">
    <g
       id="g9364"
       clip-path="url(#clipPath9368)">
      <g
         id="g9370"
         transform="translate(621.4339,110.0629)">
        <path
           d="m 0,0 h -58.587 l -1.232,-14.796 h 19.979 l -6.353,-54.892 h 20.539 l 6.354,54.892 H -1.368 Z M -64.622,-14.696 -63.385,0 h -45.485 l -8.066,-69.688 h 48.952 l 1.223,14.9 h -28.136 l 1.642,14.197 h 20.845 l 1.18,14.197 h -20.382 l 1.353,11.698 z M -143.11,-31.893 -119.443,0 h -24.877 l -20.726,-32.192 15.521,-37.496 h 26.783 z M -172.49,-69.688 -164.424,0 h -20.315 l -8.067,-69.688 z m -25.984,49.792 C -197.771,-7.874 -204.411,0 -226.607,0 h -27.238 l -8.063,-69.688 h 20.312 l 3.194,27.596 c 4.425,0 6.005,-0.33 8.368,-8.098 l 6.029,-19.498 h 23.489 c -2.008,5.201 -7.211,18.098 -9.275,22.796 -1.515,3.602 -4.595,6.8 -7.236,7.5 9.466,1.402 17.848,7.441 18.553,19.496 m -21.632,-1.398 c -0.544,-4.7 -4.06,-7.6 -10.98,-7.6 h -5.787 l 1.643,14.198 h 5.673 c 6.354,0 10.027,-1.601 9.451,-6.598 m -68.817,-48.394 h 22.015 L -283.105,0 h -21.109 l -33.166,-69.688 h 21.333 l 5.862,13.399 h 18.725 z m -5.025,27.197 h -10.213 l 4.497,11.397 c 1.654,4.5 2.866,8.1 3.394,10.699 -0.187,-2.599 -0.07,-6.498 0.388,-9.397 z M -340.879,-69.688 -340.871,0 h -24.061 l -10.34,-26.594 c -2.337,-5.499 -3.413,-8.899 -4.706,-14.197 h -0.114 c -0.033,5.6 -0.399,9.299 -1.082,13.197 L -386.493,0 h -24.851 l -14.988,-69.688 h 20.426 l 4.805,27.796 c 0.738,4.401 1.29,8.199 2.009,14.398 h 0.114 c -0.153,-6.199 0.305,-10.098 0.988,-13.998 l 5.135,-28.196 h 17.249 l 13.002,28.998 c 1.676,3.698 2.65,7.197 4.24,13.096 h 0.114 c -0.694,-6 -0.886,-9.598 -1.052,-13.999 l -1.324,-28.095 z m -98.488,70.061 c 0.166,0.012 8.187,0.028 8.187,0.028 l -0.058,18.83 c 0,0 -6.362,-0.012 -7.033,-0.024 -0.386,-0.009 -4.479,0.23 -8.576,-1.393 -4.698,-1.856 -6.687,-3.135 -9.692,-6.118 -3.002,-2.982 -5.507,-6.581 -6.698,-11.406 -1.173,-4.738 -1.076,-6.531 -1.073,-7.191 0.038,-11.215 0.044,-12.564 0.066,-18.934 0.022,-6.19 -2.25,-12.427 -5.208,-16.494 -2.957,-4.07 -7.238,-7.6 -12.355,-9.92 -4.639,-2.107 -9.161,-2.125 -10.498,-2.131 -0.921,-0.002 -7.495,-0.024 -7.495,-0.024 l 0.067,-19.039 c 0,0 6.429,0.031 6.992,0.022 0.96,-0.003 8.284,0.492 13.639,2.101 5.35,1.609 12.164,4.6 19.592,11.617 7.425,7.013 11.367,16.735 12.402,20.922 1.032,4.19 1.798,7.969 1.778,12.988 -0.016,5.022 -0.066,18.958 -0.066,18.958 0,0 0.108,2.828 1.792,4.759 1.298,1.484 2.847,2.38 4.237,2.449 m 0.613,21.12 c 0.921,0.003 7.491,0.026 7.491,0.026 l -0.067,19.039 c 0,0 -6.428,-0.031 -6.989,-0.026 -0.965,0.006 -8.287,-0.489 -13.639,-2.097 -5.352,-1.61 -12.167,-4.603 -19.594,-11.618 -7.427,-7.013 -11.37,-16.735 -12.399,-20.925 -1.033,-4.19 -1.798,-7.963 -1.782,-12.985 0.02,-5.024 0.067,-18.955 0.067,-18.955 0,0 -0.105,-2.83 -1.789,-4.762 -1.302,-1.487 -2.85,-2.38 -4.24,-2.45 -0.164,-0.011 -8.188,-0.026 -8.188,-0.026 l 0.059,-18.832 c 0,0 6.362,0.011 7.033,0.022 0.383,0.012 4.481,-0.226 8.576,1.396 4.7,1.856 6.687,3.135 9.689,6.118 3.005,2.982 5.513,6.581 6.7,11.406 1.174,4.741 1.074,6.531 1.071,7.195 -0.039,11.21 -0.041,12.56 -0.063,18.927 -0.023,6.196 2.25,12.43 5.204,16.498 2.961,4.07 7.245,7.598 12.358,9.918 4.639,2.109 9.159,2.126 10.502,2.131"
           style="fill:#002855;fill-opacity:1;fill-rule:nonzero;stroke:none"
           id="path9372" />
      </g>
    </g>
  </g>
</svg>
